<?xml version="1.0" encoding="UTF-8" standalone="no"?>
<!-- Created with Inkscape (http://www.inkscape.org/) -->

<svg
   xmlns:dc="http://purl.org/dc/elements/1.1/"
   xmlns:cc="http://creativecommons.org/ns#"
   xmlns:rdf="http://www.w3.org/1999/02/22-rdf-syntax-ns#"
   xmlns:svg="http://www.w3.org/2000/svg"
   xmlns="http://www.w3.org/2000/svg"
   xmlns:sodipodi="http://sodipodi.sourceforge.net/DTD/sodipodi-0.dtd"
   xmlns:inkscape="http://www.inkscape.org/namespaces/inkscape"
   width="744.09448819"
   height="1052.3622047"
   id="svg4060"
   version="1.1"
   inkscape:version="0.48.4 r9939"
   sodipodi:docname="New document 7">
  <defs
     id="defs4062" />
  <sodipodi:namedview
     id="base"
     pagecolor="#ffffff"
     bordercolor="#666666"
     borderopacity="1.0"
     inkscape:pageopacity="0.0"
     inkscape:pageshadow="2"
     inkscape:zoom="0.98994949"
     inkscape:cx="373.87301"
     inkscape:cy="462.5982"
     inkscape:document-units="px"
     inkscape:current-layer="layer1"
     showgrid="false"
     inkscape:window-width="2560"
     inkscape:window-height="1547"
     inkscape:window-x="0"
     inkscape:window-y="0"
     inkscape:window-maximized="1" />
  <metadata
     id="metadata4065">
    <rdf:RDF>
      <cc:Work
         rdf:about="">
        <dc:format>image/svg+xml</dc:format>
        <dc:type
           rdf:resource="http://purl.org/dc/dcmitype/StillImage" />
        <dc:title></dc:title>
      </cc:Work>
    </rdf:RDF>
  </metadata>
  <g
     inkscape:label="Layer 1"
     inkscape:groupmode="layer"
     id="layer1">
    <path
       style="fill:none;stroke:#000000;stroke-width:1.53799999;stroke-linejoin:round;stroke-miterlimit:4;stroke-opacity:1;stroke-dasharray:none"
       d="m 728.57175,220.75537 -348.19699,0.553 0,-22.06755 -22.06756,0 0,22.06755 -326.857611,-0.17519 0,-89.21721 -21.71721,0 10e-6,-23.28279 21.71721,0 0,-89.217199 697.122151,0.37782 0.55301,89.446999 -22.06756,0 0,22.06756 22.06756,0 z"
       id="rect6112"
       inkscape:connector-curvature="0"
       sodipodi:nodetypes="ccccccccccccccccc" />
    <circle
       style="fill:none;stroke:#ff0000;stroke-width:0.99997902;stroke-linejoin:round;stroke-miterlimit:4;stroke-opacity:1;stroke-dasharray:none"
       id="path3366"
       cx="611.01007"
       cy="-66.89698"
       r="29.488668"
       d="m 640.49874,-66.89698 c 0,16.286142 -13.20253,29.488668 -29.48867,29.488668 -16.28614,0 -29.48867,-13.202526 -29.48867,-29.488668 0,-16.286142 13.20253,-29.488669 29.48867,-29.488669 16.28614,0 29.48867,13.202527 29.48867,29.488669 z"
       sodipodi:cx="611.01007"
       sodipodi:cy="-66.89698"
       sodipodi:rx="29.488668"
       sodipodi:ry="29.488668"
       transform="matrix(1.0000424,0,0,0.99999953,-53.153641,169.09788)" />
    <circle
       r="29.488668"
       cy="-66.89698"
       cx="703.13739"
       id="circle3368"
       style="fill:none;stroke:#ff0000;stroke-width:0.99997902;stroke-linejoin:round;stroke-miterlimit:4;stroke-opacity:1;stroke-dasharray:none"
       d="m 732.62606,-66.89698 c 0,16.286142 -13.20253,29.488668 -29.48867,29.488668 -16.28614,0 -29.48867,-13.202526 -29.48867,-29.488668 0,-16.286142 13.20253,-29.488669 29.48867,-29.488669 16.28614,0 29.48867,13.202527 29.48867,29.488669 z"
       sodipodi:cx="703.13739"
       sodipodi:cy="-66.89698"
       sodipodi:rx="29.488668"
       sodipodi:ry="29.488668"
       transform="matrix(1.0000424,0,0,0.99999953,-53.153641,169.09788)" />
    <circle
       r="29.488668"
       cy="-66.89698"
       cx="611.01007"
       id="circle4176"
       style="fill:none;stroke:#ff0000;stroke-width:0.99997902;stroke-linejoin:round;stroke-miterlimit:4;stroke-opacity:1;stroke-dasharray:none"
       d="m 640.49874,-66.89698 c 0,16.286142 -13.20253,29.488668 -29.48867,29.488668 -16.28614,0 -29.48867,-13.202526 -29.48867,-29.488668 0,-16.286142 13.20253,-29.488669 29.48867,-29.488669 16.28614,0 29.48867,13.202527 29.48867,29.488669 z"
       sodipodi:cx="611.01007"
       sodipodi:cy="-66.89698"
       sodipodi:rx="29.488668"
       sodipodi:ry="29.488668"
       transform="matrix(1.0000424,0,0,0.99999953,-523.11371,169.09788)" />
    <circle
       style="fill:none;stroke:#ff0000;stroke-width:0.99997902;stroke-linejoin:round;stroke-miterlimit:4;stroke-opacity:1;stroke-dasharray:none"
       id="circle4178"
       cx="703.13739"
       cy="-66.89698"
       r="29.488668"
       d="m 732.62606,-66.89698 c 0,16.286142 -13.20253,29.488668 -29.48867,29.488668 -16.28614,0 -29.48867,-13.202526 -29.48867,-29.488668 0,-16.286142 13.20253,-29.488669 29.48867,-29.488669 16.28614,0 29.48867,13.202527 29.48867,29.488669 z"
       sodipodi:cx="703.13739"
       sodipodi:cy="-66.89698"
       sodipodi:rx="29.488668"
       sodipodi:ry="29.488668"
       transform="matrix(1.0000424,0,0,0.99999953,-523.11371,169.09788)" />
    <path
       style="fill:none;stroke:#000000;stroke-width:1.53799999;stroke-linejoin:round;stroke-miterlimit:4;stroke-opacity:1;stroke-dasharray:none"
       d="m 729.12476,351.30836 -22.06756,0 0,-22.06756 22.06756,0 -0.55301,-89.44699 -697.122151,-0.37782 0,89.21721 -21.71721,0 -10e-6,23.28277 21.71721,0 0,89.21721 326.857611,0.17521 0,-22.06756 22.06756,0 0,22.06756 348.19699,-0.55301 z"
       id="rect4213"
       inkscape:connector-curvature="0"
       sodipodi:nodetypes="ccccccccccccccccc" />
    <circle
       r="29.488668"
       cy="-66.89698"
       cx="611.01007"
       id="circle4217"
       style="fill:none;stroke:#ff0000;stroke-width:0.99997902;stroke-linejoin:round;stroke-miterlimit:4;stroke-opacity:1;stroke-dasharray:none"
       d="m 640.49874,-66.89698 c 0,16.286142 -13.20253,29.488668 -29.48867,29.488668 -16.28614,0 -29.48867,-13.202526 -29.48867,-29.488668 0,-16.286142 13.20253,-29.488669 29.48867,-29.488669 16.28614,0 29.48867,13.202527 29.48867,29.488669 z"
       sodipodi:cx="611.01007"
       sodipodi:cy="-66.89698"
       sodipodi:rx="29.488668"
       sodipodi:ry="29.488668"
       transform="matrix(1.0000424,0,0,0.99999953,-53.153641,389.09787)" />
    <circle
       style="fill:none;stroke:#ff0000;stroke-width:0.99997902;stroke-linejoin:round;stroke-miterlimit:4;stroke-opacity:1;stroke-dasharray:none"
       id="circle4219"
       cx="703.13739"
       cy="-66.89698"
       r="29.488668"
       d="m 732.62606,-66.89698 c 0,16.286142 -13.20253,29.488668 -29.48867,29.488668 -16.28614,0 -29.48867,-13.202526 -29.48867,-29.488668 0,-16.286142 13.20253,-29.488669 29.48867,-29.488669 16.28614,0 29.48867,13.202527 29.48867,29.488669 z"
       sodipodi:cx="703.13739"
       sodipodi:cy="-66.89698"
       sodipodi:rx="29.488668"
       sodipodi:ry="29.488668"
       transform="matrix(1.0000424,0,0,0.99999953,-53.153641,389.09787)" />
    <circle
       style="fill:none;stroke:#ff0000;stroke-width:0.99997902;stroke-linejoin:round;stroke-miterlimit:4;stroke-opacity:1;stroke-dasharray:none"
       id="circle4223"
       cx="611.01007"
       cy="-66.89698"
       r="29.488668"
       d="m 640.49874,-66.89698 c 0,16.286142 -13.20253,29.488668 -29.48867,29.488668 -16.28614,0 -29.48867,-13.202526 -29.48867,-29.488668 0,-16.286142 13.20253,-29.488669 29.48867,-29.488669 16.28614,0 29.48867,13.202527 29.48867,29.488669 z"
       sodipodi:cx="611.01007"
       sodipodi:cy="-66.89698"
       sodipodi:rx="29.488668"
       sodipodi:ry="29.488668"
       transform="matrix(1.0000424,0,0,0.99999953,-523.11371,389.09787)" />
    <circle
       r="29.488668"
       cy="-66.89698"
       cx="703.13739"
       id="circle4225"
       style="fill:none;stroke:#ff0000;stroke-width:0.99997902;stroke-linejoin:round;stroke-miterlimit:4;stroke-opacity:1;stroke-dasharray:none"
       d="m 732.62606,-66.89698 c 0,16.286142 -13.20253,29.488668 -29.48867,29.488668 -16.28614,0 -29.48867,-13.202526 -29.48867,-29.488668 0,-16.286142 13.20253,-29.488669 29.48867,-29.488669 16.28614,0 29.48867,13.202527 29.48867,29.488669 z"
       sodipodi:cx="703.13739"
       sodipodi:cy="-66.89698"
       sodipodi:rx="29.488668"
       sodipodi:ry="29.488668"
       transform="matrix(1.0000424,0,0,0.99999953,-523.11371,389.09787)" />
  </g>
</svg>
