<?xml version="1.0" encoding="UTF-8" standalone="no"?>
<!-- Created with Inkscape (http://www.inkscape.org/) -->

<svg
   xmlns:dc="http://purl.org/dc/elements/1.1/"
   xmlns:cc="http://creativecommons.org/ns#"
   xmlns:rdf="http://www.w3.org/1999/02/22-rdf-syntax-ns#"
   xmlns:svg="http://www.w3.org/2000/svg"
   xmlns="http://www.w3.org/2000/svg"
   xmlns:sodipodi="http://sodipodi.sourceforge.net/DTD/sodipodi-0.dtd"
   xmlns:inkscape="http://www.inkscape.org/namespaces/inkscape"
   width="744.09448819"
   height="1052.3622047"
   id="svg3944"
   version="1.1"
   inkscape:version="0.48.4 r9939"
   sodipodi:docname="New document 3">
  <defs
     id="defs3946" />
  <sodipodi:namedview
     id="base"
     pagecolor="#ffffff"
     bordercolor="#666666"
     borderopacity="1.0"
     inkscape:pageopacity="0.0"
     inkscape:pageshadow="2"
     inkscape:zoom="0.98994949"
     inkscape:cx="315.85247"
     inkscape:cy="535.04252"
     inkscape:document-units="px"
     inkscape:current-layer="layer1"
     showgrid="false"
     inkscape:window-width="2560"
     inkscape:window-height="1547"
     inkscape:window-x="0"
     inkscape:window-y="0"
     inkscape:window-maximized="1" />
  <metadata
     id="metadata3949">
    <rdf:RDF>
      <cc:Work
         rdf:about="">
        <dc:format>image/svg+xml</dc:format>
        <dc:type
           rdf:resource="http://purl.org/dc/dcmitype/StillImage" />
        <dc:title></dc:title>
      </cc:Work>
    </rdf:RDF>
  </metadata>
  <g
     inkscape:label="Layer 1"
     inkscape:groupmode="layer"
     id="layer1">
    <path
       style="fill:none;stroke:#000000;stroke-width:1.53799999;stroke-linejoin:round;stroke-miterlimit:4;stroke-opacity:1;stroke-dasharray:none"
       d="m 729.41202,130.77402 -22.06756,0 0,-22.06756 22.06756,0 -0.55301,-89.447023 -697.122153,-0.37784 0,89.217213 -21.717211,0 -4e-6,23.28276 21.71721,0 0,89.21721 326.857608,0.17524 0,-22.06756 22.06756,0 0,22.06756 348.19699,-0.55301 z"
       id="rect4239"
       inkscape:connector-curvature="0"
       sodipodi:nodetypes="ccccccccccccccccc" />
    <circle
       r="29.488668"
       cy="-66.89698"
       cx="611.01007"
       id="circle4243"
       style="fill:none;stroke:#ff0000;stroke-width:0.99997902;stroke-linejoin:round;stroke-miterlimit:4;stroke-opacity:1;stroke-dasharray:none"
       d="m 640.49874,-66.89698 c 0,16.286142 -13.20253,29.488668 -29.48867,29.488668 -16.28614,0 -29.48867,-13.202526 -29.48867,-29.488668 0,-16.286142 13.20253,-29.488669 29.48867,-29.488669 16.28614,0 29.48867,13.202527 29.48867,29.488669 z"
       sodipodi:cx="611.01007"
       sodipodi:cy="-66.89698"
       sodipodi:rx="29.488668"
       sodipodi:ry="29.488668"
       transform="matrix(1.0000424,0,0,0.99999953,-52.866381,168.5635)" />
    <circle
       style="fill:none;stroke:#ff0000;stroke-width:0.99997902;stroke-linejoin:round;stroke-miterlimit:4;stroke-opacity:1;stroke-dasharray:none"
       id="circle4245"
       cx="703.13739"
       cy="-66.89698"
       r="29.488668"
       d="m 732.62606,-66.89698 c 0,16.286142 -13.20253,29.488668 -29.48867,29.488668 -16.28614,0 -29.48867,-13.202526 -29.48867,-29.488668 0,-16.286142 13.20253,-29.488669 29.48867,-29.488669 16.28614,0 29.48867,13.202527 29.48867,29.488669 z"
       sodipodi:cx="703.13739"
       sodipodi:cy="-66.89698"
       sodipodi:rx="29.488668"
       sodipodi:ry="29.488668"
       transform="matrix(1.0000424,0,0,0.99999953,-52.866381,168.5635)" />
    <circle
       style="fill:none;stroke:#ff0000;stroke-width:0.99997902;stroke-linejoin:round;stroke-miterlimit:4;stroke-opacity:1;stroke-dasharray:none"
       id="circle4249"
       cx="611.01007"
       cy="-66.89698"
       r="29.488668"
       d="m 640.49874,-66.89698 c 0,16.286142 -13.20253,29.488668 -29.48867,29.488668 -16.28614,0 -29.48867,-13.202526 -29.48867,-29.488668 0,-16.286142 13.20253,-29.488669 29.48867,-29.488669 16.28614,0 29.48867,13.202527 29.48867,29.488669 z"
       sodipodi:cx="611.01007"
       sodipodi:cy="-66.89698"
       sodipodi:rx="29.488668"
       sodipodi:ry="29.488668"
       transform="matrix(1.0000424,0,0,0.99999953,-522.82645,168.5635)" />
    <circle
       r="29.488668"
       cy="-66.89698"
       cx="703.13739"
       id="circle4251"
       style="fill:none;stroke:#ff0000;stroke-width:0.99997902;stroke-linejoin:round;stroke-miterlimit:4;stroke-opacity:1;stroke-dasharray:none"
       d="m 732.62606,-66.89698 c 0,16.286142 -13.20253,29.488668 -29.48867,29.488668 -16.28614,0 -29.48867,-13.202526 -29.48867,-29.488668 0,-16.286142 13.20253,-29.488669 29.48867,-29.488669 16.28614,0 29.48867,13.202527 29.48867,29.488669 z"
       sodipodi:cx="703.13739"
       sodipodi:cy="-66.89698"
       sodipodi:rx="29.488668"
       sodipodi:ry="29.488668"
       transform="matrix(1.0000424,0,0,0.99999953,-522.82645,168.5635)" />
    <path
       style="fill:none;stroke:#000000;stroke-width:1.53799999;stroke-linejoin:round;stroke-miterlimit:4;stroke-opacity:1;stroke-dasharray:none"
       d="m 358.59446,441.31442 0,-22.06755 22.06756,0 0,22.06755 348.19699,-0.55295 0.55301,-89.44705 -22.06756,0 0,-22.06755 22.06756,0 -0.55301,-89.44696 -697.122153,-0.37787 0,89.21721 -21.717211,0 -4e-6,23.28279 21.71721,0 0,89.21721 68.382728,-0.10858 0,-34.69597 95.64835,0 0,34.69597 z"
       id="rect4265"
       inkscape:connector-curvature="0"
       sodipodi:nodetypes="ccccccccccccccccccccc" />
    <circle
       sodipodi:ry="29.488668"
       sodipodi:rx="29.488668"
       sodipodi:cy="-66.89698"
       sodipodi:cx="611.01007"
       d="m 640.49874,-66.89698 c 0,16.286142 -13.20253,29.488668 -29.48867,29.488668 -16.28614,0 -29.48867,-13.202526 -29.48867,-29.488668 0,-16.286142 13.20253,-29.488669 29.48867,-29.488669 16.28614,0 29.48867,13.202527 29.48867,29.488669 z"
       style="fill:none;stroke:#ff0000;stroke-width:0.99997902;stroke-linejoin:round;stroke-miterlimit:4;stroke-opacity:1;stroke-dasharray:none"
       id="circle4269"
       cx="611.01007"
       cy="-66.89698"
       r="29.488668"
       transform="matrix(1.0000424,0,0,0.99999953,-52.866381,389.10394)" />
    <circle
       sodipodi:ry="29.488668"
       sodipodi:rx="29.488668"
       sodipodi:cy="-66.89698"
       sodipodi:cx="703.13739"
       d="m 732.62606,-66.89698 c 0,16.286142 -13.20253,29.488668 -29.48867,29.488668 -16.28614,0 -29.48867,-13.202526 -29.48867,-29.488668 0,-16.286142 13.20253,-29.488669 29.48867,-29.488669 16.28614,0 29.48867,13.202527 29.48867,29.488669 z"
       r="29.488668"
       cy="-66.89698"
       cx="703.13739"
       id="circle4271"
       style="fill:none;stroke:#ff0000;stroke-width:0.99997902;stroke-linejoin:round;stroke-miterlimit:4;stroke-opacity:1;stroke-dasharray:none"
       transform="matrix(1.0000424,0,0,0.99999953,-52.866381,389.10394)" />
    <circle
       sodipodi:ry="29.488668"
       sodipodi:rx="29.488668"
       sodipodi:cy="-66.89698"
       sodipodi:cx="611.01007"
       d="m 640.49874,-66.89698 c 0,16.286142 -13.20253,29.488668 -29.48867,29.488668 -16.28614,0 -29.48867,-13.202526 -29.48867,-29.488668 0,-16.286142 13.20253,-29.488669 29.48867,-29.488669 16.28614,0 29.48867,13.202527 29.48867,29.488669 z"
       r="29.488668"
       cy="-66.89698"
       cx="611.01007"
       id="circle4275"
       style="fill:none;stroke:#ff0000;stroke-width:0.99997902;stroke-linejoin:round;stroke-miterlimit:4;stroke-opacity:1;stroke-dasharray:none"
       transform="matrix(1.0000424,0,0,0.99999953,-522.82645,389.10394)" />
    <circle
       sodipodi:ry="29.488668"
       sodipodi:rx="29.488668"
       sodipodi:cy="-66.89698"
       sodipodi:cx="703.13739"
       d="m 732.62606,-66.89698 c 0,16.286142 -13.20253,29.488668 -29.48867,29.488668 -16.28614,0 -29.48867,-13.202526 -29.48867,-29.488668 0,-16.286142 13.20253,-29.488669 29.48867,-29.488669 16.28614,0 29.48867,13.202527 29.48867,29.488669 z"
       style="fill:none;stroke:#ff0000;stroke-width:0.99997902;stroke-linejoin:round;stroke-miterlimit:4;stroke-opacity:1;stroke-dasharray:none"
       id="circle4277"
       cx="703.13739"
       cy="-66.89698"
       r="29.488668"
       transform="matrix(1.0000424,0,0,0.99999953,-522.82645,389.10394)" />
  </g>
</svg>
